<svg width="41" height="41" viewBox="0 0 41 41" fill="none" xmlns="http://www.w3.org/2000/svg">
<mask id="mask0_365_687" style="mask-type:alpha" maskUnits="userSpaceOnUse" x="0" y="0" width="41" height="41">
<rect width="41" height="41" fill="#D9D9D9"/>
</mask>
<g mask="url(#mask0_365_687)">
<path d="M8.54167 35.875C7.60208 35.875 6.79774 35.5405 6.12865 34.8714C5.45955 34.2023 5.125 33.3979 5.125 32.4583V8.54167C5.125 7.60208 5.45955 6.79774 6.12865 6.12865C6.79774 5.45955 7.60208 5.125 8.54167 5.125H22.2083V8.54167H8.54167V32.4583H32.4583V18.7917H35.875V32.4583C35.875 33.3979 35.5405 34.2023 34.8714 34.8714C34.2023 35.5405 33.3979 35.875 32.4583 35.875H8.54167ZM10.25 29.0417H30.75L24.3438 20.5L19.2188 27.3333L15.375 22.2083L10.25 29.0417ZM29.0417 15.375V11.9583H25.625V8.54167H29.0417V5.125H32.4583V8.54167H35.875V11.9583H32.4583V15.375H29.0417Z" fill="#63A39C"/>
</g>
</svg>
