<svg width="30" height="31" viewBox="0 0 30 31" fill="none" xmlns="http://www.w3.org/2000/svg">
<path d="M15.3322 2C7.87631 2 1.83215 8.04415 1.83215 15.5C1.83215 22.9558 7.87631 29 15.3322 29C22.7879 29 28.8322 22.9558 28.8322 15.5C28.8322 8.04415 22.7879 2 15.3322 2Z" stroke="#63A39C" stroke-width="2.07769" stroke-linecap="round" stroke-linejoin="round"/>
<path d="M4.89795 24.0668C4.89795 24.0668 7.90713 20.2251 15.3321 20.2251C22.7571 20.2251 25.7664 24.0668 25.7664 24.0668" stroke="#63A39C" stroke-width="2.07769" stroke-linecap="round" stroke-linejoin="round"/>
<path d="M15.3321 15.4999C17.5689 15.4999 19.3821 13.6867 19.3821 11.4499C19.3821 9.21315 17.5689 7.3999 15.3321 7.3999C13.0953 7.3999 11.2821 9.21315 11.2821 11.4499C11.2821 13.6867 13.0953 15.4999 15.3321 15.4999Z" stroke="#63A39C" stroke-width="2.07769" stroke-linecap="round" stroke-linejoin="round"/>
</svg>
