<svg width="27" height="27" viewBox="0 0 27 27" fill="none" xmlns="http://www.w3.org/2000/svg">
<path d="M25.9091 10.9826L14.5306 0.514445C14.1607 0.174131 13.6736 -0.0100416 13.171 0.000422699C12.6685 0.010887 12.1895 0.215178 11.8341 0.570596L1.3692 11.0355L0.832153 11.5725V27H10.9164V17.3741H16.4169V27H26.5012V11.5274L25.9091 10.9826ZM13.2105 1.83353C13.2266 1.83353 13.2167 1.83703 13.2097 1.84385C13.2026 1.83703 13.1943 1.83353 13.2105 1.83353ZM24.6677 25.1665H18.2504V17.3741C18.2504 16.8878 18.0572 16.4215 17.7134 16.0776C17.3695 15.7338 16.9032 15.5406 16.4169 15.5406H10.9164C10.4301 15.5406 9.96378 15.7338 9.61993 16.0776C9.27608 16.4215 9.08291 16.8878 9.08291 17.3741V25.1665H2.66565V12.332L13.2105 1.86705C13.2112 1.86637 13.2113 1.86574 13.2118 1.86505L24.6677 12.332V25.1665Z" fill="#63A39C"/>
</svg>
