<svg width="28" height="27" viewBox="0 0 28 27" fill="none" xmlns="http://www.w3.org/2000/svg">
<path d="M14.9574 25.7443C22.0528 25.7443 27.8296 19.9675 27.8296 12.8722C27.8296 5.77677 22.0528 0 14.9574 0C7.86205 0 2.08528 5.77677 2.08528 12.8722C2.08528 19.9675 7.86205 25.7443 14.9574 25.7443ZM14.9574 1.88373C21.023 1.88373 25.9459 6.8191 25.9459 12.8722C25.9459 18.9252 21.023 23.8606 14.9574 23.8606C8.89183 23.8606 3.96901 18.9252 3.96901 12.8722C3.96901 6.8191 8.89183 1.88373 14.9574 1.88373Z" fill="#63A39C"/>
<path d="M1.77083 27.0001C2.00943 27.0001 2.24804 26.9122 2.43641 26.7239L4.94805 24.2122C5.31224 23.848 5.31224 23.2452 4.94805 22.8811C4.58386 22.5169 3.98107 22.5169 3.61688 22.8811L1.10524 25.3927C0.741055 25.7569 0.741055 26.3597 1.10524 26.7239C1.29362 26.9122 1.53222 27.0001 1.77083 27.0001Z" fill="#63A39C"/>
</svg>
