<svg width="15" height="20" viewBox="0 0 15 20" fill="none" xmlns="http://www.w3.org/2000/svg">
<path d="M7.61557 4.75977C7.08003 4.75977 6.55652 4.91857 6.11124 5.2161C5.66595 5.51363 5.31889 5.93652 5.11395 6.4313C4.90901 6.92607 4.85539 7.4705 4.95987 7.99575C5.06435 8.521 5.32223 9.00348 5.70091 9.38216C6.0796 9.76084 6.56207 10.0187 7.08732 10.1232C7.61257 10.2277 8.15701 10.1741 8.65178 9.96912C9.14655 9.76418 9.56944 9.41712 9.86697 8.97184C10.1645 8.52655 10.3233 8.00304 10.3233 7.4675C10.3225 6.74962 10.037 6.06137 9.52933 5.55375C9.02171 5.04612 8.33346 4.76058 7.61557 4.75977ZM7.61557 8.82137C7.3478 8.82137 7.08605 8.74197 6.8634 8.5932C6.64076 8.44444 6.46723 8.23299 6.36476 7.9856C6.26229 7.73822 6.23548 7.466 6.28772 7.20337C6.33996 6.94075 6.4689 6.69951 6.65824 6.51017C6.84759 6.32083 7.08882 6.19189 7.35145 6.13965C7.61407 6.08741 7.88629 6.11422 8.13368 6.21669C8.38106 6.31916 8.59251 6.49269 8.74127 6.71533C8.89004 6.93797 8.96944 7.19973 8.96944 7.4675C8.96903 7.82644 8.82625 8.17056 8.57244 8.42437C8.31863 8.67818 7.97451 8.82095 7.61557 8.82137Z" fill="black"/>
<path d="M12.8188 2.26052C11.5323 0.97436 9.81501 0.210331 7.99833 0.115887C6.18166 0.021444 4.39439 0.603282 2.98147 1.7491C1.56856 2.89493 0.630164 4.52351 0.347395 6.32053C0.064627 8.11755 0.457533 9.95561 1.45028 11.48L6.56566 19.333C6.6795 19.5077 6.83514 19.6513 7.01849 19.7507C7.20184 19.85 7.4071 19.9021 7.61565 19.9021C7.8242 19.9021 8.02945 19.85 8.2128 19.7507C8.39615 19.6513 8.5518 19.5077 8.66564 19.333L13.7812 11.48C14.7023 10.0659 15.1094 8.37817 14.9342 6.69966C14.759 5.02114 14.0121 3.45386 12.8188 2.26052ZM12.6468 10.741L7.61567 18.4644L2.58448 10.741C1.04446 8.37683 1.37476 5.21301 3.36986 3.21783C3.92742 2.66025 4.58935 2.21795 5.31784 1.91619C6.04634 1.61443 6.82715 1.45912 7.61567 1.45912C8.40419 1.45912 9.185 1.61443 9.9135 1.91619C10.642 2.21795 11.3039 2.66025 11.8615 3.21783C13.8566 5.21301 14.1868 8.37683 12.6468 10.741Z" fill="black"/>
</svg>
