<svg width="28" height="28" viewBox="0 0 28 28" fill="none" xmlns="http://www.w3.org/2000/svg">
<path fill-rule="evenodd" clip-rule="evenodd" d="M14 21C17.866 21 21 17.866 21 14C21 10.134 17.866 7 14 7C10.134 7 7 10.134 7 14C7 17.866 10.134 21 14 21ZM14 18.6667C16.5773 18.6667 18.6667 16.5773 18.6667 14C18.6667 11.4227 16.5773 9.33333 14 9.33333C11.4227 9.33333 9.33333 11.4227 9.33333 14C9.33333 16.5773 11.4227 18.6667 14 18.6667Z" fill="white"/>
<path d="M21 5.8335C20.3557 5.8335 19.8334 6.35584 19.8334 7.00016C19.8334 7.64449 20.3557 8.16683 21 8.16683C21.6444 8.16683 22.1667 7.64449 22.1667 7.00016C22.1667 6.35584 21.6444 5.8335 21 5.8335Z" fill="white"/>
<path fill-rule="evenodd" clip-rule="evenodd" d="M1.92958 4.98857C1.16663 6.48596 1.16663 8.44614 1.16663 12.3665V15.6332C1.16663 19.5535 1.16663 21.5138 1.92958 23.0111C2.60069 24.3282 3.67155 25.3991 4.9887 26.0702C6.48608 26.8332 8.44626 26.8332 12.3666 26.8332H15.6333C19.5536 26.8332 21.5139 26.8332 23.0112 26.0702C24.3283 25.3991 25.3992 24.3282 26.0703 23.0111C26.8333 21.5138 26.8333 19.5535 26.8333 15.6332V12.3665C26.8333 8.44614 26.8333 6.48596 26.0703 4.98857C25.3992 3.67143 24.3283 2.60057 23.0112 1.92946C21.5139 1.1665 19.5536 1.1665 15.6333 1.1665H12.3666C8.44626 1.1665 6.48608 1.1665 4.9887 1.92946C3.67155 2.60057 2.60069 3.67143 1.92958 4.98857ZM15.6333 3.49984H12.3666C10.3679 3.49984 9.00925 3.50166 7.95905 3.58745C6.93607 3.67103 6.41294 3.82253 6.04801 4.00847C5.16991 4.45589 4.45601 5.16979 4.00859 6.04788C3.82265 6.41282 3.67116 6.93595 3.58758 7.95893C3.50178 9.00913 3.49996 10.3678 3.49996 12.3665V15.6332C3.49996 17.6319 3.50178 18.9905 3.58758 20.0407C3.67116 21.0638 3.82265 21.5869 4.00859 21.9518C4.45601 22.8299 5.16991 23.5438 6.04801 23.9912C6.41294 24.1771 6.93607 24.3287 7.95905 24.4122C9.00925 24.498 10.3679 24.4998 12.3666 24.4998H15.6333C17.632 24.4998 18.9906 24.498 20.0408 24.4122C21.0639 24.3287 21.587 24.1771 21.952 23.9912C22.83 23.5438 23.5439 22.8299 23.9913 21.9518C24.1773 21.5869 24.3288 21.0638 24.4123 20.0407C24.4981 18.9905 24.5 17.6319 24.5 15.6332V12.3665C24.5 10.3678 24.4981 9.00913 24.4123 7.95893C24.3288 6.93595 24.1773 6.41282 23.9913 6.04788C23.5439 5.16979 22.83 4.45589 21.952 4.00847C21.587 3.82253 21.0639 3.67103 20.0408 3.58745C18.9906 3.50166 17.632 3.49984 15.6333 3.49984Z" fill="white"/>
</svg>
