<svg width="12" height="16" viewBox="0 0 12 16" fill="none" xmlns="http://www.w3.org/2000/svg">
<g clip-path="url(#clip0_103_337)">
<path d="M5.40912 14.9732C1.33775 8.9971 0.582031 8.38377 0.582031 6.18748C0.582031 3.17904 2.99073 0.740234 5.96203 0.740234C8.93333 0.740234 11.342 3.17904 11.342 6.18748C11.342 8.38377 10.5863 8.9971 6.51494 14.9732C6.24776 15.3639 5.67628 15.3639 5.40912 14.9732ZM5.96203 8.45717C7.20008 8.45717 8.2037 7.441 8.2037 6.18748C8.2037 4.93396 7.20008 3.9178 5.96203 3.9178C4.72399 3.9178 3.72036 4.93396 3.72036 6.18748C3.72036 7.441 4.72399 8.45717 5.96203 8.45717Z" fill="#FF0000"/>
</g>
<defs>
<clipPath id="clip0_103_337">
<rect width="10.76" height="14.526" fill="white" transform="translate(0.582031 0.740234)"/>
</clipPath>
</defs>
</svg>
