<svg width="28" height="27" viewBox="0 0 28 27" fill="none" xmlns="http://www.w3.org/2000/svg">
<mask id="mask0_365_1113" style="mask-type:alpha" maskUnits="userSpaceOnUse" x="0" y="0" width="28" height="27">
<rect x="0.832153" width="27" height="27" fill="#D9D9D9"/>
</mask>
<g mask="url(#mask0_365_1113)">
<path d="M13.2072 19.125V18H15.4572V19.125H13.2072ZM13.2072 17.4375V16.5656C12.8509 16.3594 12.5743 16.0828 12.3775 15.7359C12.1806 15.3891 12.0822 15.0188 12.0822 14.625C12.0822 14.0063 12.3025 13.4766 12.7431 13.0359C13.1837 12.5953 13.7134 12.375 14.3322 12.375C14.9509 12.375 15.4806 12.5953 15.9212 13.0359C16.3618 13.4766 16.5822 14.0063 16.5822 14.625C16.5822 15.0188 16.4837 15.3891 16.2868 15.7359C16.09 16.0828 15.8134 16.3594 15.4572 16.5656V17.4375H13.2072ZM18.8322 17.9438L17.6509 16.7344C17.8572 16.4156 18.0118 16.0781 18.115 15.7219C18.2181 15.3656 18.2697 15 18.2697 14.625C18.2697 14.25 18.2181 13.8844 18.115 13.5281C18.0118 13.1719 17.8572 12.8344 17.6509 12.5156L18.8322 11.3063C19.2072 11.7937 19.4884 12.3187 19.6759 12.8812C19.8634 13.4437 19.9572 14.025 19.9572 14.625C19.9572 15.225 19.8634 15.8063 19.6759 16.3688C19.4884 16.9313 19.2072 17.4562 18.8322 17.9438ZM9.83215 17.9438C9.45715 17.4562 9.1759 16.9313 8.9884 16.3688C8.8009 15.8063 8.70715 15.225 8.70715 14.625C8.70715 13.0688 9.25559 11.7422 10.3525 10.6453C11.4493 9.54844 12.7759 9 14.3322 9V7.59375L16.8634 9.84375L14.3322 12.0938V10.6875C13.2447 10.6875 12.3165 11.0719 11.5478 11.8406C10.779 12.6094 10.3947 13.5375 10.3947 14.625C10.3947 15 10.4462 15.3656 10.5493 15.7219C10.6525 16.0781 10.8072 16.4156 11.0134 16.7344L9.83215 17.9438ZM7.58215 25.875C6.9634 25.875 6.43372 25.6547 5.99309 25.2141C5.55247 24.7734 5.33215 24.2437 5.33215 23.625V3.375C5.33215 2.75625 5.55247 2.22656 5.99309 1.78594C6.43372 1.34531 6.9634 1.125 7.58215 1.125H21.0822C21.7009 1.125 22.2306 1.34531 22.6712 1.78594C23.1118 2.22656 23.3322 2.75625 23.3322 3.375V23.625C23.3322 24.2437 23.1118 24.7734 22.6712 25.2141C22.2306 25.6547 21.7009 25.875 21.0822 25.875H7.58215ZM7.58215 20.25H21.0822V6.75H7.58215V20.25ZM7.58215 22.5V23.625H21.0822V22.5H7.58215ZM7.58215 4.5H21.0822V3.375H7.58215V4.5Z" fill="#63A39C"/>
</g>
</svg>
