<svg width="42" height="41" viewBox="0 0 42 41" fill="none" xmlns="http://www.w3.org/2000/svg">
<mask id="mask0_365_1003" style="mask-type:alpha" maskUnits="userSpaceOnUse" x="0" y="0" width="42" height="41">
<rect width="41.4581" height="41" fill="#D9D9D9"/>
</mask>
<g mask="url(#mask0_365_1003)">
<path d="M6.90968 34.1668C5.95959 34.1668 5.14627 33.8323 4.46969 33.1632C3.79312 32.4941 3.45483 31.6897 3.45483 30.7502V20.5002H6.90968V30.7502H27.6387V10.2502H17.2742V6.8335H27.6387C28.5888 6.8335 29.4021 7.16804 30.0787 7.83714C30.7553 8.50624 31.0936 9.31058 31.0936 10.2502V17.9377L38.0033 11.1043V29.896L31.0936 23.0627V30.7502C31.0936 31.6897 30.7553 32.4941 30.0787 33.1632C29.4021 33.8323 28.5888 34.1668 27.6387 34.1668H6.90968ZM8.6371 27.3335H25.9113L20.0813 19.646L15.5468 25.6252L12.7397 21.9095L8.6371 27.3335ZM6.90968 17.0835V13.6668H3.45483V10.2502H6.90968V6.8335H10.3645V10.2502H13.8194V13.6668H10.3645V17.0835H6.90968Z" fill="#63A39C"/>
</g>
</svg>
