<svg width="28" height="28" viewBox="0 0 28 28" fill="none" xmlns="http://www.w3.org/2000/svg">
<path d="M7.01634 9.34048C7.14965 8.28613 8.5199 6.85316 9.60736 7.01217L9.60562 7.01043C10.6639 7.21154 11.5017 9.03304 11.9741 9.85209C12.3088 10.4464 12.0915 11.0484 11.7793 11.3025C11.3581 11.642 10.6995 12.1103 10.8377 12.5806C11.0833 13.4167 14 16.3333 15.4345 17.1625C15.9775 17.4763 16.3713 16.6486 16.7075 16.2245C16.9518 15.8983 17.5544 15.7033 18.1473 16.0253C19.0328 16.541 19.8669 17.1403 20.6383 17.815C21.0236 18.137 21.114 18.6129 20.8471 19.1158C20.3769 20.0017 19.017 21.1699 18.0299 20.9324C16.3058 20.5179 9.33334 17.815 7.09372 9.98434C6.96777 9.61389 6.99948 9.47385 7.01634 9.34048Z" fill="white"/>
<path fill-rule="evenodd" clip-rule="evenodd" d="M14 26.8332C12.5724 26.8332 11.7826 26.68 10.5 26.2498L8.04346 27.4781C6.49202 28.2538 4.66663 27.1257 4.66663 25.3911V22.7498C2.15427 20.4072 1.16663 17.706 1.16663 13.9998C1.16663 6.91219 6.91231 1.1665 14 1.1665C21.0876 1.1665 26.8333 6.91219 26.8333 13.9998C26.8333 21.0875 21.0876 26.8332 14 26.8332ZM6.99996 21.7352L6.2579 21.0432C4.30597 19.2232 3.49996 17.1885 3.49996 13.9998C3.49996 8.20085 8.20097 3.49984 14 3.49984C19.799 3.49984 24.5 8.20085 24.5 13.9998C24.5 19.7989 19.799 24.4998 14 24.4998C12.85 24.4998 12.3106 24.396 11.2419 24.0376L10.3232 23.7295L6.99996 25.3911V21.7352Z" fill="white"/>
</svg>
