<svg width="9" height="16" viewBox="0 0 9 16" fill="none" xmlns="http://www.w3.org/2000/svg">
<g clip-path="url(#clip0_103_339)">
<path d="M3.3716 9.94035V14.3859L4.02976 15.3227C4.17173 15.5247 4.48467 15.5247 4.62664 15.3227L5.28449 14.3859V9.94035C4.97395 9.99483 4.65503 10.0272 4.32805 10.0272C4.00106 10.0272 3.68215 9.99483 3.3716 9.94035ZM4.32805 0.948242C1.95098 0.948242 0.0240479 2.77736 0.0240479 5.03376C0.0240479 7.29016 1.95098 9.11928 4.32805 9.11928C6.70511 9.11928 8.63205 7.29016 8.63205 5.03376C8.63205 2.77736 6.70511 0.948242 4.32805 0.948242ZM4.32805 3.10449C3.20721 3.10449 2.2956 3.96982 2.2956 5.03376C2.2956 5.22158 2.1348 5.37422 1.93694 5.37422C1.73907 5.37422 1.57827 5.22158 1.57827 5.03376C1.57827 3.59447 2.81208 2.42357 4.32805 2.42357C4.52591 2.42357 4.68671 2.57621 4.68671 2.76403C4.68671 2.95185 4.52591 3.10449 4.32805 3.10449Z" fill="#363220"/>
</g>
<defs>
<clipPath id="clip0_103_339">
<rect width="8.608" height="14.526" fill="white" transform="translate(0.0240479 0.948242)"/>
</clipPath>
</defs>
</svg>
