<svg width="16" height="27" viewBox="0 0 16 27" fill="none" xmlns="http://www.w3.org/2000/svg">
<g clip-path="url(#clip0_103_345)">
<path d="M6.22222 16.714V24.9771L7.44556 26.7184C7.70944 27.0939 8.29111 27.0939 8.555 26.7184L9.77778 24.9771V16.714C9.20056 16.8152 8.60778 16.8753 8 16.8753C7.39222 16.8753 6.79944 16.8152 6.22222 16.714ZM8 0C3.58167 0 0 3.39985 0 7.5939C0 11.7879 3.58167 15.1878 8 15.1878C12.4183 15.1878 16 11.7879 16 7.5939C16 3.39985 12.4183 0 8 0ZM8 4.00789C5.91667 4.00789 4.22222 5.61632 4.22222 7.5939C4.22222 7.94301 3.92333 8.22672 3.55556 8.22672C3.18778 8.22672 2.88889 7.94301 2.88889 7.5939C2.88889 4.91863 5.18222 2.74224 8 2.74224C8.36778 2.74224 8.66667 3.02596 8.66667 3.37507C8.66667 3.72417 8.36778 4.00789 8 4.00789Z" fill="#313EB3"/>
</g>
<defs>
<clipPath id="clip0_103_345">
<rect width="16" height="27" fill="white"/>
</clipPath>
</defs>
</svg>
