<svg width="9" height="15" viewBox="0 0 9 15" fill="none" xmlns="http://www.w3.org/2000/svg">
<g clip-path="url(#clip0_103_343)">
<path d="M3.63552 9.44035V13.8859L4.29367 14.8227C4.43565 15.0247 4.74858 15.0247 4.89055 14.8227L5.54841 13.8859V9.44035C5.23786 9.49483 4.91895 9.52717 4.59196 9.52717C4.26498 9.52717 3.94606 9.49483 3.63552 9.44035ZM4.59196 0.448242C2.2149 0.448242 0.287964 2.27736 0.287964 4.53376C0.287964 6.79016 2.2149 8.61928 4.59196 8.61928C6.96903 8.61928 8.89596 6.79016 8.89596 4.53376C8.89596 2.27736 6.96903 0.448242 4.59196 0.448242ZM4.59196 2.60449C3.47113 2.60449 2.55952 3.46982 2.55952 4.53376C2.55952 4.72158 2.39872 4.87422 2.20085 4.87422C2.00299 4.87422 1.84219 4.72158 1.84219 4.53376C1.84219 3.09447 3.076 1.92357 4.59196 1.92357C4.78983 1.92357 4.95063 2.07621 4.95063 2.26403C4.95063 2.45185 4.78983 2.60449 4.59196 2.60449Z" fill="#313EB3"/>
</g>
<defs>
<clipPath id="clip0_103_343">
<rect width="8.608" height="14.526" fill="white" transform="translate(0.287964 0.448242)"/>
</clipPath>
</defs>
</svg>
