<svg width="9" height="15" viewBox="0 0 9 15" fill="none" xmlns="http://www.w3.org/2000/svg">
<g clip-path="url(#clip0_103_341)">
<path d="M3.62551 9.43596V13.8815L4.28366 14.8183C4.42564 15.0203 4.73857 15.0203 4.88054 14.8183L5.5384 13.8815V9.43596C5.22785 9.49043 4.90894 9.52278 4.58195 9.52278C4.25497 9.52278 3.93606 9.49043 3.62551 9.43596ZM4.58195 0.443848C2.20489 0.443848 0.277954 2.27297 0.277954 4.52937C0.277954 6.78576 2.20489 8.61488 4.58195 8.61488C6.95902 8.61488 8.88595 6.78576 8.88595 4.52937C8.88595 2.27297 6.95902 0.443848 4.58195 0.443848ZM4.58195 2.60009C3.46112 2.60009 2.54951 3.46543 2.54951 4.52937C2.54951 4.71719 2.38871 4.86982 2.19084 4.86982C1.99298 4.86982 1.83218 4.71719 1.83218 4.52937C1.83218 3.09007 3.06599 1.91917 4.58195 1.91917C4.77982 1.91917 4.94062 2.07181 4.94062 2.25963C4.94062 2.44745 4.77982 2.60009 4.58195 2.60009Z" fill="#313EB3"/>
</g>
<defs>
<clipPath id="clip0_103_341">
<rect width="8.608" height="14.526" fill="white" transform="translate(0.277954 0.443848)"/>
</clipPath>
</defs>
</svg>
