<svg xmlns="http://www.w3.org/2000/svg" xmlns:xlink="http://www.w3.org/1999/xlink" width="100" zoomAndPan="magnify" viewBox="0 0 75 74.999997" height="100" preserveAspectRatio="xMidYMid meet" version="1.2"><defs><clipPath id="5c7a109244"><path d="M 4.199219 0.394531 L 70.949219 0.394531 L 70.949219 74.644531 L 4.199219 74.644531 Z M 4.199219 0.394531 "/></clipPath><clipPath id="ccdb59c199"><path d="M 30.261719 22.125 L 44.738281 22.125 L 44.738281 36.601562 L 30.261719 36.601562 Z M 30.261719 22.125 "/></clipPath><clipPath id="01ef9f21f8"><path d="M 37.5 22.125 C 33.503906 22.125 30.261719 25.367188 30.261719 29.363281 C 30.261719 33.359375 33.503906 36.601562 37.5 36.601562 C 41.496094 36.601562 44.738281 33.359375 44.738281 29.363281 C 44.738281 25.367188 41.496094 22.125 37.5 22.125 Z M 37.5 22.125 "/></clipPath></defs><g id="3ed92d627b"><g clip-rule="nonzero" clip-path="url(#5c7a109244)"><path style=" stroke:none;fill-rule:nonzero;fill:#ffffff;fill-opacity:1;" d="M 70.785156 27.46875 L 70.785156 33.839844 C 70.785156 36.769531 68.414062 39.152344 65.5 39.152344 C 62.585938 39.152344 60.214844 36.769531 60.214844 33.839844 L 60.214844 29.199219 C 60.210938 29.148438 60.1875 29.101562 60.1875 29.050781 C 60.1875 16.175781 49.992188 5.703125 37.460938 5.703125 C 25.21875 5.703125 15.230469 15.707031 14.777344 28.171875 L 14.777344 34.902344 C 14.777344 38.417969 17.621094 41.273438 21.121094 41.273438 C 22.285156 41.273438 23.234375 42.226562 23.234375 43.398438 C 23.234375 44.570312 22.285156 45.519531 21.121094 45.519531 C 16.664062 45.519531 12.863281 42.730469 11.3125 38.804688 C 10.742188 39.019531 10.132812 39.152344 9.492188 39.152344 C 6.578125 39.152344 4.207031 36.769531 4.207031 33.84375 L 4.207031 27.46875 C 4.207031 24.542969 6.578125 22.160156 9.492188 22.160156 C 9.761719 22.160156 10.019531 22.203125 10.28125 22.242188 C 13.28125 9.722656 24.308594 0.394531 37.460938 0.394531 C 50.609375 0.394531 61.644531 9.726562 64.640625 22.25 C 64.921875 22.203125 65.207031 22.160156 65.5 22.160156 C 68.414062 22.160156 70.785156 24.542969 70.785156 27.46875 Z M 54.886719 29.050781 C 54.886719 19.382812 47.085938 11.542969 37.460938 11.542969 C 27.835938 11.542969 20.03125 19.382812 20.03125 29.050781 C 20.03125 38.71875 27.835938 46.554688 37.460938 46.554688 C 47.085938 46.558594 54.886719 38.71875 54.886719 29.050781 Z M 54.808594 51.867188 L 48.605469 51.867188 C 47.222656 51.867188 45.929688 52.542969 45.136719 53.679688 L 40.800781 59.917969 C 39.101562 62.359375 35.5 62.332031 33.835938 59.871094 L 29.683594 53.726562 C 28.894531 52.5625 27.585938 51.867188 26.183594 51.867188 L 20.09375 51.867188 C 12.246094 51.867188 5.882812 58.253906 5.882812 66.140625 L 5.882812 72.472656 C 5.882812 73.644531 6.828125 74.597656 7.996094 74.597656 L 66.902344 74.597656 C 68.070312 74.597656 69.015625 73.644531 69.015625 72.472656 L 69.015625 66.140625 C 69.015625 58.257812 62.65625 51.867188 54.808594 51.867188 Z M 54.808594 51.867188 "/></g><g clip-rule="nonzero" clip-path="url(#ccdb59c199)"><g clip-rule="nonzero" clip-path="url(#01ef9f21f8)"><path style=" stroke:none;fill-rule:nonzero;fill:#ffffff;fill-opacity:1;" d="M 30.261719 22.125 L 44.738281 22.125 L 44.738281 36.601562 L 30.261719 36.601562 Z M 30.261719 22.125 "/></g></g></g></svg>