<svg xmlns="http://www.w3.org/2000/svg" xmlns:xlink="http://www.w3.org/1999/xlink" width="1080" zoomAndPan="magnify" viewBox="0 0 810 647.999998" height="864" preserveAspectRatio="xMidYMid meet" version="1.0"><defs><clipPath id="0d98332932"><path d="M 56.863281 113.511719 L 753.699219 113.511719 L 753.699219 461.957031 L 56.863281 461.957031 Z M 56.863281 113.511719 " clip-rule="nonzero"/></clipPath><clipPath id="c32f2cb69f"><path d="M 56.863281 461.957031 C 56.863281 269.511719 212.851562 113.511719 405.28125 113.511719 C 597.710938 113.511719 753.699219 269.511719 753.699219 461.957031 L 718.855469 461.957031 C 718.855469 288.753906 578.46875 148.355469 405.28125 148.355469 C 232.09375 148.355469 91.707031 288.753906 91.707031 461.957031 Z M 56.863281 461.957031 " clip-rule="nonzero"/></clipPath><clipPath id="c31ca8ac2e"><path d="M 370.441406 199.261719 L 583 199.261719 L 583 461.957031 L 370.441406 461.957031 Z M 370.441406 199.261719 " clip-rule="nonzero"/></clipPath><clipPath id="6c43d5d642"><path d="M 432.859375 448.414062 C 421.085938 463.640625 399.207031 466.449219 383.980469 454.691406 C 368.753906 442.917969 365.949219 421.039062 377.703125 405.808594 L 569.910156 202.613281 C 572.257812 199.566406 576.632812 199.007812 579.675781 201.355469 C 582.722656 203.703125 583.285156 208.074219 580.9375 211.136719 Z M 432.859375 448.414062 " clip-rule="nonzero"/></clipPath></defs><g clip-path="url(#0d98332932)"><g clip-path="url(#c32f2cb69f)"><path fill="#80c662" d="M 56.863281 113.511719 L 753.699219 113.511719 L 753.699219 461.957031 L 56.863281 461.957031 Z M 56.863281 113.511719 " fill-opacity="1" fill-rule="nonzero"/></g></g><g clip-path="url(#c31ca8ac2e)"><g clip-path="url(#6c43d5d642)"><path fill="#a6a6a6" d="M 56.863281 113.511719 L 753.699219 113.511719 L 753.699219 461.957031 L 56.863281 461.957031 Z M 56.863281 113.511719 " fill-opacity="1" fill-rule="nonzero"/></g></g><path fill="#545454" d="M 335.902344 522.074219 C 338.386719 522.621094 340.394531 523.878906 341.890625 525.820312 C 343.390625 527.722656 344.136719 529.9375 344.136719 532.421875 C 344.136719 536.011719 342.878906 538.851562 340.394531 540.925781 C 337.894531 543.019531 334.421875 544.058594 329.984375 544.058594 L 310.042969 544.058594 L 310.042969 501.25 L 329.304688 501.25 C 333.65625 501.25 337.0625 502.253906 339.511719 504.246094 C 341.960938 506.253906 343.183594 508.941406 343.183594 512.34375 C 343.183594 514.894531 342.523438 517.003906 341.210938 518.671875 C 339.882812 520.304688 338.117188 521.445312 335.902344 522.074219 Z M 320.457031 518.535156 L 327.261719 518.535156 C 328.980469 518.535156 330.289062 518.179688 331.207031 517.449219 C 332.109375 516.683594 332.570312 515.578125 332.570312 514.113281 C 332.570312 512.667969 332.109375 511.5625 331.207031 510.777344 C 330.289062 510.011719 328.980469 509.621094 327.261719 509.621094 L 320.457031 509.621094 Z M 328.144531 535.617188 C 329.863281 535.617188 331.207031 535.246094 332.160156 534.460938 C 333.113281 533.644531 333.589844 532.488281 333.589844 530.992188 C 333.589844 529.492188 333.078125 528.320312 332.09375 527.453125 C 331.089844 526.601562 329.726562 526.160156 328.011719 526.160156 L 320.457031 526.160156 L 320.457031 535.617188 Z M 328.144531 535.617188 " fill-opacity="1" fill-rule="nonzero"/><path fill="#545454" d="M 348.09375 526.976562 C 348.09375 523.488281 348.742188 520.425781 350.066406 517.789062 C 351.378906 515.167969 353.164062 513.144531 355.441406 511.730469 C 357.757812 510.285156 360.308594 509.554688 363.132812 509.554688 C 365.480469 509.554688 367.574219 510.0625 369.394531 511.050781 C 371.195312 512.003906 372.609375 513.28125 373.613281 514.863281 L 373.613281 510.03125 L 384.023438 510.03125 L 384.023438 544.058594 L 373.613281 544.058594 L 373.613281 539.226562 C 372.558594 540.824219 371.128906 542.117188 369.324219 543.105469 C 367.503906 544.058594 365.414062 544.535156 363.066406 544.535156 C 360.292969 544.535156 357.757812 543.835938 355.441406 542.425781 C 353.164062 540.976562 351.378906 538.917969 350.066406 536.230469 C 348.742188 533.558594 348.09375 530.480469 348.09375 526.976562 Z M 373.613281 527.042969 C 373.613281 524.457031 372.882812 522.414062 371.433594 520.917969 C 369.972656 519.386719 368.203125 518.605469 366.128906 518.605469 C 364.085938 518.605469 362.332031 519.351562 360.886719 520.851562 C 359.425781 522.347656 358.710938 524.390625 358.710938 526.976562 C 358.710938 529.5625 359.425781 531.636719 360.886719 533.167969 C 362.332031 534.71875 364.085938 535.484375 366.128906 535.484375 C 368.203125 535.484375 369.972656 534.734375 371.433594 533.238281 C 372.882812 531.707031 373.613281 529.628906 373.613281 527.042969 Z M 373.613281 527.042969 " fill-opacity="1" fill-rule="nonzero"/><path fill="#545454" d="M 404.511719 509.554688 C 406.859375 509.554688 408.953125 510.0625 410.773438 511.050781 C 412.574219 512.003906 413.988281 513.28125 414.992188 514.863281 L 414.992188 510.03125 L 425.402344 510.03125 L 425.402344 543.988281 C 425.402344 547.121094 424.753906 549.945312 423.496094 552.496094 C 422.273438 555.03125 420.382812 557.054688 417.847656 558.554688 C 415.296875 560.050781 412.148438 560.800781 408.390625 560.800781 C 403.355469 560.800781 399.269531 559.609375 396.140625 557.261719 C 393.011719 554.894531 391.207031 551.679688 390.765625 547.597656 L 401.039062 547.597656 C 401.347656 548.90625 402.128906 549.925781 403.355469 550.660156 C 404.578125 551.425781 406.09375 551.816406 407.914062 551.816406 C 410.039062 551.816406 411.742188 551.167969 413.015625 549.910156 C 414.328125 548.683594 414.992188 546.710938 414.992188 543.988281 L 414.992188 539.15625 C 413.9375 540.757812 412.507812 542.050781 410.703125 543.035156 C 408.933594 544.039062 406.859375 544.535156 404.511719 544.535156 C 401.6875 544.535156 399.136719 543.835938 396.820312 542.425781 C 394.542969 540.976562 392.753906 538.917969 391.445312 536.230469 C 390.117188 533.558594 389.472656 530.480469 389.472656 526.976562 C 389.472656 523.488281 390.117188 520.425781 391.445312 517.789062 C 392.753906 515.167969 394.542969 513.144531 396.820312 511.730469 C 399.136719 510.285156 401.6875 509.554688 404.511719 509.554688 Z M 414.992188 527.042969 C 414.992188 524.457031 414.257812 522.414062 412.8125 520.917969 C 411.351562 519.386719 409.582031 518.605469 407.503906 518.605469 C 405.464844 518.605469 403.710938 519.351562 402.265625 520.851562 C 400.800781 522.347656 400.085938 524.390625 400.085938 526.976562 C 400.085938 529.5625 400.800781 531.636719 402.265625 533.167969 C 403.710938 534.71875 405.464844 535.484375 407.503906 535.484375 C 409.582031 535.484375 411.351562 534.734375 412.8125 533.238281 C 414.257812 531.707031 414.992188 529.628906 414.992188 527.042969 Z M 414.992188 527.042969 " fill-opacity="1" fill-rule="nonzero"/><path fill="#545454" d="M 466.507812 510.03125 L 466.507812 544.058594 L 456.097656 544.058594 L 456.097656 539.429688 C 455.039062 540.925781 453.613281 542.136719 451.808594 543.035156 C 449.988281 543.957031 447.996094 544.398438 445.820312 544.398438 C 443.183594 544.398438 440.871094 543.835938 438.878906 542.695312 C 436.871094 541.523438 435.339844 539.839844 434.25 537.660156 C 433.164062 535.484375 432.617188 532.898438 432.617188 529.902344 L 432.617188 510.03125 L 442.960938 510.03125 L 442.960938 528.539062 C 442.960938 530.820312 443.539062 532.589844 444.730469 533.847656 C 445.90625 535.074219 447.488281 535.6875 449.496094 535.6875 C 451.535156 535.6875 453.136719 535.074219 454.328125 533.847656 C 455.5 532.589844 456.097656 530.820312 456.097656 528.539062 L 456.097656 510.03125 Z M 466.507812 510.03125 " fill-opacity="1" fill-rule="nonzero"/><path fill="#545454" d="M 487.84375 544.535156 C 484.886719 544.535156 482.230469 544.039062 479.882812 543.035156 C 477.570312 542 475.734375 540.585938 474.371094 538.816406 C 473.042969 537.046875 472.332031 535.074219 472.195312 532.898438 L 482.46875 532.898438 C 482.605469 534.085938 483.148438 535.039062 484.101562 535.753906 C 485.089844 536.488281 486.296875 536.84375 487.710938 536.84375 C 489.019531 536.84375 490.023438 536.605469 490.703125 536.09375 C 491.417969 535.601562 491.792969 534.9375 491.792969 534.121094 C 491.792969 533.132812 491.265625 532.402344 490.226562 531.945312 C 489.222656 531.5 487.589844 530.972656 485.328125 530.378906 C 482.878906 529.835938 480.835938 529.253906 479.203125 528.609375 C 477.605469 527.980469 476.226562 526.976562 475.050781 525.613281 C 473.863281 524.253906 473.28125 522.414062 473.28125 520.101562 C 473.28125 518.164062 473.792969 516.394531 474.847656 514.792969 C 475.9375 513.160156 477.519531 511.902344 479.613281 510.984375 C 481.738281 510.03125 484.238281 509.554688 487.097656 509.554688 C 491.351562 509.554688 494.71875 510.625 497.167969 512.753906 C 499.652344 514.84375 501.082031 517.636719 501.457031 521.121094 L 491.792969 521.121094 C 491.65625 519.949219 491.128906 519.011719 490.226562 518.332031 C 489.359375 517.652344 488.21875 517.3125 486.824219 517.3125 C 485.601562 517.3125 484.648438 517.550781 483.96875 517.992188 C 483.320312 518.453125 483.015625 519.082031 483.015625 519.898438 C 483.015625 520.902344 483.523438 521.648438 484.578125 522.144531 C 485.617188 522.601562 487.234375 523.078125 489.410156 523.574219 C 491.945312 524.21875 494.003906 524.847656 495.601562 525.476562 C 497.183594 526.125 498.5625 527.144531 499.753906 528.539062 C 500.980469 529.953125 501.589844 531.839844 501.589844 534.191406 C 501.589844 536.195312 501.011719 537.984375 499.890625 539.566406 C 498.800781 541.113281 497.203125 542.339844 495.128906 543.242188 C 493.035156 544.089844 490.601562 544.535156 487.84375 544.535156 Z M 487.84375 544.535156 " fill-opacity="1" fill-rule="nonzero"/></svg>