<svg xmlns="http://www.w3.org/2000/svg" xmlns:xlink="http://www.w3.org/1999/xlink" width="1080" zoomAndPan="magnify" viewBox="0 0 810 647.999998" height="864" preserveAspectRatio="xMidYMid meet" version="1.0"><defs><clipPath id="01126a9baf"><path d="M 64.328125 116.582031 L 747.660156 116.582031 L 747.660156 458.210938 L 64.328125 458.210938 Z M 64.328125 116.582031 " clip-rule="nonzero"/></clipPath><clipPath id="86b064aeb6"><path d="M 64.328125 458.210938 C 64.328125 269.53125 217.292969 116.582031 405.996094 116.582031 C 594.695312 116.582031 747.660156 269.53125 747.660156 458.210938 L 713.496094 458.210938 C 713.496094 288.394531 575.828125 150.742188 405.996094 150.742188 C 236.160156 150.742188 98.496094 288.394531 98.496094 458.210938 Z M 64.328125 458.210938 " clip-rule="nonzero"/></clipPath><clipPath id="4d3150787a"><path d="M 256 186 L 440.160156 186 L 440.160156 458.210938 L 256 458.210938 Z M 256 186 " clip-rule="nonzero"/></clipPath><clipPath id="e2b1ce8fa6"><path d="M 435.023438 406.03125 C 441.460938 416.40625 441.878906 429.417969 436.105469 440.175781 C 430.351562 450.9375 419.273438 457.808594 407.078125 458.191406 C 394.882812 458.578125 383.390625 452.421875 376.964844 442.0625 L 257.265625 197.316406 C 255.980469 195.25 255.898438 192.644531 257.050781 190.496094 C 258.199219 188.34375 260.402344 186.957031 262.855469 186.890625 C 265.289062 186.808594 267.59375 188.042969 268.878906 190.109375 Z M 435.023438 406.03125 " clip-rule="nonzero"/></clipPath></defs><g clip-path="url(#01126a9baf)"><g clip-path="url(#86b064aeb6)"><path fill="#f18973" d="M 64.328125 116.582031 L 747.660156 116.582031 L 747.660156 458.210938 L 64.328125 458.210938 Z M 64.328125 116.582031 " fill-opacity="1" fill-rule="nonzero"/></g></g><g clip-path="url(#4d3150787a)"><g clip-path="url(#e2b1ce8fa6)"><path fill="#a6a6a6" d="M 64.328125 116.582031 L 747.660156 116.582031 L 747.660156 458.210938 L 64.328125 458.210938 Z M 64.328125 116.582031 " fill-opacity="1" fill-rule="nonzero"/></g></g><path fill="#545454" d="M 343.816406 517.152344 C 346.253906 517.6875 348.222656 518.921875 349.6875 520.824219 C 351.15625 522.691406 351.890625 524.859375 351.890625 527.296875 C 351.890625 530.816406 350.65625 533.601562 348.222656 535.636719 C 345.769531 537.6875 342.363281 538.707031 338.011719 538.707031 L 318.457031 538.707031 L 318.457031 496.734375 L 337.34375 496.734375 C 341.613281 496.734375 344.949219 497.71875 347.351562 499.671875 C 349.753906 501.640625 350.957031 504.277344 350.957031 507.613281 C 350.957031 510.113281 350.304688 512.183594 349.023438 513.816406 C 347.71875 515.417969 345.984375 516.535156 343.816406 517.152344 Z M 328.667969 513.683594 L 335.339844 513.683594 C 337.027344 513.683594 338.3125 513.335938 339.210938 512.617188 C 340.097656 511.867188 340.546875 510.78125 340.546875 509.347656 C 340.546875 507.929688 340.097656 506.84375 339.210938 506.078125 C 338.3125 505.328125 337.027344 504.945312 335.339844 504.945312 L 328.667969 504.945312 Z M 336.210938 530.433594 C 337.894531 530.433594 339.210938 530.066406 340.144531 529.296875 C 341.082031 528.496094 341.546875 527.363281 341.546875 525.894531 C 341.546875 524.425781 341.046875 523.277344 340.078125 522.425781 C 339.09375 521.589844 337.761719 521.15625 336.074219 521.15625 L 328.667969 521.15625 L 328.667969 530.433594 Z M 336.210938 530.433594 " fill-opacity="1" fill-rule="nonzero"/><path fill="#545454" d="M 390.738281 505.34375 L 390.738281 538.707031 L 380.527344 538.707031 L 380.527344 534.167969 C 379.492188 535.636719 378.09375 536.820312 376.324219 537.707031 C 374.539062 538.605469 372.585938 539.039062 370.453125 539.039062 C 367.867188 539.039062 365.597656 538.488281 363.644531 537.371094 C 361.675781 536.21875 360.175781 534.570312 359.105469 532.433594 C 358.039062 530.296875 357.503906 527.761719 357.503906 524.828125 L 357.503906 505.34375 L 367.648438 505.34375 L 367.648438 523.492188 C 367.648438 525.726562 368.214844 527.464844 369.382812 528.699219 C 370.535156 529.898438 372.085938 530.5 374.054688 530.5 C 376.058594 530.5 377.625 529.898438 378.792969 528.699219 C 379.945312 527.464844 380.527344 525.726562 380.527344 523.492188 L 380.527344 505.34375 Z M 390.738281 505.34375 " fill-opacity="1" fill-rule="nonzero"/><path fill="#545454" d="M 408.328125 510.882812 C 409.527344 509.0625 411.011719 507.644531 412.796875 506.613281 C 414.566406 505.542969 416.566406 505.011719 418.804688 505.011719 L 418.804688 515.820312 L 415.933594 515.820312 C 413.398438 515.820312 411.480469 516.386719 410.195312 517.488281 C 408.945312 518.554688 408.328125 520.472656 408.328125 523.226562 L 408.328125 538.707031 L 398.117188 538.707031 L 398.117188 505.34375 L 408.328125 505.34375 Z M 408.328125 510.882812 " fill-opacity="1" fill-rule="nonzero"/><path fill="#545454" d="M 456.589844 505.34375 L 456.589844 538.707031 L 446.382812 538.707031 L 446.382812 534.167969 C 445.347656 535.636719 443.945312 536.820312 442.175781 537.707031 C 440.390625 538.605469 438.441406 539.039062 436.304688 539.039062 C 433.71875 539.039062 431.449219 538.488281 429.5 537.371094 C 427.53125 536.21875 426.027344 534.570312 424.960938 532.433594 C 423.894531 530.296875 423.359375 527.761719 423.359375 524.828125 L 423.359375 505.34375 L 433.503906 505.34375 L 433.503906 523.492188 C 433.503906 525.726562 434.070312 527.464844 435.238281 528.699219 C 436.386719 529.898438 437.941406 530.5 439.910156 530.5 C 441.910156 530.5 443.480469 529.898438 444.648438 528.699219 C 445.796875 527.464844 446.382812 525.726562 446.382812 523.492188 L 446.382812 505.34375 Z M 456.589844 505.34375 " fill-opacity="1" fill-rule="nonzero"/><path fill="#545454" d="M 484.324219 538.707031 L 474.179688 524.695312 L 474.179688 538.707031 L 463.96875 538.707031 L 463.96875 494.46875 L 474.179688 494.46875 L 474.179688 518.890625 L 484.257812 505.34375 L 496.867188 505.34375 L 482.988281 522.089844 L 497.003906 538.707031 Z M 484.324219 538.707031 " fill-opacity="1" fill-rule="nonzero"/></svg>