<svg xmlns="http://www.w3.org/2000/svg" xmlns:xlink="http://www.w3.org/1999/xlink" width="1080" zoomAndPan="magnify" viewBox="0 0 810 647.999998" height="864" preserveAspectRatio="xMidYMid meet" version="1.0"><defs><clipPath id="3a439bfddd"><path d="M 45.09375 95.46875 L 758.425781 95.46875 L 758.425781 452.136719 L 45.09375 452.136719 Z M 45.09375 95.46875 " clip-rule="nonzero"/></clipPath><clipPath id="74742897a2"><path d="M 45.09375 452.136719 C 45.09375 255.152344 204.773438 95.46875 401.757812 95.46875 C 598.746094 95.46875 758.425781 255.152344 758.425781 452.136719 L 722.757812 452.136719 C 722.757812 274.847656 579.046875 131.136719 401.757812 131.136719 C 224.472656 131.136719 80.761719 274.847656 80.761719 452.136719 Z M 45.09375 452.136719 " clip-rule="nonzero"/></clipPath><clipPath id="b0fd5254bd"><path d="M 366.09375 380 L 716 380 L 716 452.136719 L 366.09375 452.136719 Z M 366.09375 380 " clip-rule="nonzero"/></clipPath><clipPath id="f5d37d2d9a"><path d="M 405.15625 451.980469 C 392.460938 453.179688 380.09375 447.539062 372.710938 437.160156 C 365.308594 426.777344 364.019531 413.246094 369.316406 401.648438 C 374.609375 390.066406 385.6875 382.179688 398.363281 380.960938 L 708.148438 380.070312 C 712.066406 379.6875 715.550781 382.5625 715.933594 386.496094 C 716.296875 390.414062 713.425781 393.898438 709.503906 394.265625 Z M 405.15625 451.980469 " clip-rule="nonzero"/></clipPath></defs><g clip-path="url(#3a439bfddd)"><g clip-path="url(#74742897a2)"><path fill="#068f4d" d="M 45.09375 95.46875 L 758.425781 95.46875 L 758.425781 452.136719 L 45.09375 452.136719 Z M 45.09375 95.46875 " fill-opacity="1" fill-rule="nonzero"/></g></g><g clip-path="url(#b0fd5254bd)"><g clip-path="url(#f5d37d2d9a)"><path fill="#a6a6a6" d="M 45.09375 95.46875 L 758.425781 95.46875 L 758.425781 452.136719 L 45.09375 452.136719 Z M 45.09375 95.46875 " fill-opacity="1" fill-rule="nonzero"/></g></g><path fill="#545454" d="M 197.09375 536.59375 C 193.890625 536.59375 191 536.089844 188.457031 535.0625 C 185.949219 534 183.929688 532.464844 182.394531 530.464844 C 180.863281 528.425781 180.0625 525.96875 180.027344 523.078125 L 191.382812 523.078125 C 191.523438 524.714844 192.078125 525.96875 193.054688 526.839844 C 194.03125 527.675781 195.285156 528.09375 196.816406 528.09375 C 198.382812 528.09375 199.621094 527.730469 200.507812 526.980469 C 201.429688 526.25 201.902344 525.222656 201.902344 523.914062 C 201.902344 522.851562 201.519531 521.964844 200.785156 521.269531 C 200.089844 520.570312 199.203125 519.996094 198.140625 519.527344 C 197.058594 519.074219 195.5625 518.535156 193.613281 517.925781 C 190.773438 517.089844 188.457031 516.234375 186.644531 515.347656 C 184.867188 514.476562 183.335938 513.167969 182.046875 511.445312 C 180.742188 509.738281 180.097656 507.507812 180.097656 504.757812 C 180.097656 500.71875 181.578125 497.546875 184.554688 495.214844 C 187.515625 492.898438 191.382812 491.730469 196.121094 491.730469 C 200.941406 491.730469 204.828125 492.898438 207.753906 495.214844 C 210.714844 497.546875 212.296875 500.753906 212.488281 504.828125 L 200.996094 504.828125 C 200.890625 503.433594 200.367188 502.355469 199.394531 501.554688 C 198.453125 500.71875 197.234375 500.300781 195.703125 500.300781 C 194.449219 500.300781 193.417969 500.648438 192.636719 501.34375 C 191.835938 502.007812 191.453125 502.980469 191.453125 504.269531 C 191.453125 505.714844 192.097656 506.832031 193.402344 507.613281 C 194.742188 508.414062 196.832031 509.25 199.671875 510.121094 C 202.492188 511.097656 204.792969 512.039062 206.570312 512.910156 C 208.328125 513.796875 209.859375 515.066406 211.167969 516.738281 C 212.453125 518.375 213.117188 520.5 213.117188 523.148438 C 213.117188 525.621094 212.453125 527.867188 211.167969 529.90625 C 209.914062 531.960938 208.066406 533.582031 205.664062 534.78125 C 203.242188 536 200.386719 536.59375 197.09375 536.59375 Z M 197.09375 536.59375 " fill-opacity="1" fill-rule="nonzero"/><path fill="#545454" d="M 217.488281 518.691406 C 217.488281 515.121094 218.148438 511.984375 219.507812 509.285156 C 220.847656 506.605469 222.675781 504.53125 225.011719 503.085938 C 227.378906 501.605469 229.992188 500.855469 232.882812 500.855469 C 235.285156 500.855469 237.425781 501.378906 239.289062 502.390625 C 241.136719 503.363281 242.582031 504.671875 243.609375 506.289062 L 243.609375 501.34375 L 254.269531 501.34375 L 254.269531 536.175781 L 243.609375 536.175781 L 243.609375 531.230469 C 242.53125 532.867188 241.066406 534.191406 239.222656 535.199219 C 237.359375 536.175781 235.214844 536.664062 232.8125 536.664062 C 229.972656 536.664062 227.378906 535.949219 225.011719 534.503906 C 222.675781 533.023438 220.847656 530.914062 219.507812 528.164062 C 218.148438 525.429688 217.488281 522.277344 217.488281 518.691406 Z M 243.609375 518.761719 C 243.609375 516.113281 242.859375 514.023438 241.378906 512.492188 C 239.882812 510.921875 238.070312 510.121094 235.945312 510.121094 C 233.855469 510.121094 232.0625 510.886719 230.582031 512.421875 C 229.085938 513.953125 228.355469 516.042969 228.355469 518.691406 C 228.355469 521.335938 229.085938 523.460938 230.582031 525.03125 C 232.0625 526.613281 233.855469 527.398438 235.945312 527.398438 C 238.070312 527.398438 239.882812 526.632812 241.378906 525.097656 C 242.859375 523.53125 243.609375 521.40625 243.609375 518.761719 Z M 243.609375 518.761719 " fill-opacity="1" fill-rule="nonzero"/><path fill="#545454" d="M 283.179688 500.996094 C 287.253906 500.996094 290.511719 502.320312 292.933594 504.96875 C 295.386719 507.578125 296.625 511.203125 296.625 515.835938 L 296.625 536.175781 L 286.035156 536.175781 L 286.035156 517.296875 C 286.035156 514.929688 285.425781 513.117188 284.226562 511.863281 C 283.007812 510.574219 281.386719 509.914062 279.347656 509.914062 C 277.292969 509.914062 275.675781 510.574219 274.472656 511.863281 C 273.253906 513.117188 272.660156 514.929688 272.660156 517.296875 L 272.660156 536.175781 L 262.003906 536.175781 L 262.003906 501.34375 L 272.660156 501.34375 L 272.660156 505.941406 C 273.722656 504.410156 275.167969 503.207031 276.980469 502.320312 C 278.828125 501.449219 280.898438 500.996094 283.179688 500.996094 Z M 283.179688 500.996094 " fill-opacity="1" fill-rule="nonzero"/><path fill="#545454" d="M 317.285156 500.855469 C 319.6875 500.855469 321.828125 501.378906 323.691406 502.390625 C 325.539062 503.363281 326.984375 504.671875 328.011719 506.289062 L 328.011719 501.34375 L 338.671875 501.34375 L 338.671875 536.105469 C 338.671875 539.308594 338.007812 542.199219 336.71875 544.8125 C 335.464844 547.40625 333.53125 549.480469 330.9375 551.011719 C 328.324219 552.546875 325.105469 553.3125 321.253906 553.3125 C 316.101562 553.3125 311.921875 552.09375 308.714844 549.691406 C 305.511719 547.269531 303.664062 543.976562 303.210938 539.796875 L 313.730469 539.796875 C 314.046875 541.136719 314.847656 542.183594 316.101562 542.933594 C 317.355469 543.714844 318.902344 544.117188 320.765625 544.117188 C 322.945312 544.117188 324.6875 543.453125 325.992188 542.167969 C 327.332031 540.914062 328.011719 538.890625 328.011719 536.105469 L 328.011719 531.160156 C 326.933594 532.796875 325.46875 534.121094 323.625 535.128906 C 321.8125 536.15625 319.6875 536.664062 317.285156 536.664062 C 314.394531 536.664062 311.78125 535.949219 309.414062 534.503906 C 307.078125 533.023438 305.25 530.914062 303.910156 528.164062 C 302.550781 525.429688 301.890625 522.277344 301.890625 518.691406 C 301.890625 515.121094 302.550781 511.984375 303.910156 509.285156 C 305.25 506.605469 307.078125 504.53125 309.414062 503.085938 C 311.78125 501.605469 314.394531 500.855469 317.285156 500.855469 Z M 328.011719 518.761719 C 328.011719 516.113281 327.261719 514.023438 325.78125 512.492188 C 324.285156 510.921875 322.472656 510.121094 320.347656 510.121094 C 318.257812 510.121094 316.464844 510.886719 314.984375 512.421875 C 313.488281 513.953125 312.757812 516.042969 312.757812 518.691406 C 312.757812 521.335938 313.488281 523.460938 314.984375 525.03125 C 316.464844 526.613281 318.257812 527.398438 320.347656 527.398438 C 322.472656 527.398438 324.285156 526.632812 325.78125 525.097656 C 327.261719 523.53125 328.011719 521.40625 328.011719 518.761719 Z M 328.011719 518.761719 " fill-opacity="1" fill-rule="nonzero"/><path fill="#545454" d="M 344.246094 518.691406 C 344.246094 515.121094 344.90625 511.984375 346.265625 509.285156 C 347.609375 506.605469 349.4375 504.53125 351.769531 503.085938 C 354.136719 501.605469 356.75 500.855469 359.640625 500.855469 C 362.042969 500.855469 364.1875 501.378906 366.050781 502.390625 C 367.894531 503.363281 369.34375 504.671875 370.371094 506.289062 L 370.371094 501.34375 L 381.027344 501.34375 L 381.027344 536.175781 L 370.371094 536.175781 L 370.371094 531.230469 C 369.289062 532.867188 367.828125 534.191406 365.980469 535.199219 C 364.117188 536.175781 361.976562 536.664062 359.570312 536.664062 C 356.734375 536.664062 354.136719 535.949219 351.769531 534.503906 C 349.4375 533.023438 347.609375 530.914062 346.265625 528.164062 C 344.90625 525.429688 344.246094 522.277344 344.246094 518.691406 Z M 370.371094 518.761719 C 370.371094 516.113281 369.621094 514.023438 368.140625 512.492188 C 366.640625 510.921875 364.832031 510.121094 362.707031 510.121094 C 360.617188 510.121094 358.824219 510.886719 357.34375 512.421875 C 355.84375 513.953125 355.113281 516.042969 355.113281 518.691406 C 355.113281 521.335938 355.84375 523.460938 357.34375 525.03125 C 358.824219 526.613281 360.617188 527.398438 362.707031 527.398438 C 364.832031 527.398438 366.640625 526.632812 368.140625 525.097656 C 369.621094 523.53125 370.371094 521.40625 370.371094 518.761719 Z M 370.371094 518.761719 " fill-opacity="1" fill-rule="nonzero"/><path fill="#545454" d="M 408.128906 527.121094 L 408.128906 536.175781 L 402.695312 536.175781 C 398.828125 536.175781 395.816406 535.234375 393.640625 533.320312 C 391.496094 531.421875 390.433594 528.339844 390.433594 524.054688 L 390.433594 510.191406 L 386.183594 510.191406 L 386.183594 501.34375 L 390.433594 501.34375 L 390.433594 492.847656 L 401.09375 492.847656 L 401.09375 501.34375 L 408.058594 501.34375 L 408.058594 510.191406 L 401.09375 510.191406 L 401.09375 524.195312 C 401.09375 525.222656 401.320312 525.96875 401.789062 526.421875 C 402.292969 526.894531 403.148438 527.121094 404.367188 527.121094 Z M 408.128906 527.121094 " fill-opacity="1" fill-rule="nonzero"/><path fill="#545454" d="M 453.785156 513.675781 C 456.328125 514.230469 458.382812 515.519531 459.917969 517.507812 C 461.449219 519.457031 462.214844 521.71875 462.214844 524.261719 C 462.214844 527.9375 460.925781 530.847656 458.382812 532.972656 C 455.824219 535.113281 452.269531 536.175781 447.726562 536.175781 L 427.316406 536.175781 L 427.316406 492.359375 L 447.027344 492.359375 C 451.488281 492.359375 454.96875 493.386719 457.476562 495.421875 C 459.984375 497.476562 461.238281 500.230469 461.238281 503.714844 C 461.238281 506.324219 460.558594 508.484375 459.21875 510.191406 C 457.859375 511.863281 456.050781 513.03125 453.785156 513.675781 Z M 437.972656 510.050781 L 444.9375 510.050781 C 446.699219 510.050781 448.039062 509.6875 448.980469 508.9375 C 449.902344 508.152344 450.371094 507.023438 450.371094 505.523438 C 450.371094 504.042969 449.902344 502.910156 448.980469 502.109375 C 448.039062 501.328125 446.699219 500.925781 444.9375 500.925781 L 437.972656 500.925781 Z M 445.84375 527.539062 C 447.605469 527.539062 448.980469 527.152344 449.953125 526.351562 C 450.929688 525.515625 451.417969 524.332031 451.417969 522.800781 C 451.417969 521.269531 450.894531 520.066406 449.886719 519.179688 C 448.859375 518.308594 447.464844 517.855469 445.707031 517.855469 L 437.972656 517.855469 L 437.972656 527.539062 Z M 445.84375 527.539062 " fill-opacity="1" fill-rule="nonzero"/><path fill="#545454" d="M 466.265625 518.691406 C 466.265625 515.121094 466.925781 511.984375 468.285156 509.285156 C 469.625 506.605469 471.453125 504.53125 473.789062 503.085938 C 476.15625 501.605469 478.769531 500.855469 481.660156 500.855469 C 484.0625 500.855469 486.207031 501.378906 488.070312 502.390625 C 489.914062 503.363281 491.359375 504.671875 492.386719 506.289062 L 492.386719 501.34375 L 503.046875 501.34375 L 503.046875 536.175781 L 492.386719 536.175781 L 492.386719 531.230469 C 491.308594 532.867188 489.84375 534.191406 488 535.199219 C 486.136719 536.175781 483.992188 536.664062 481.589844 536.664062 C 478.75 536.664062 476.15625 535.949219 473.789062 534.503906 C 471.453125 533.023438 469.625 530.914062 468.285156 528.164062 C 466.925781 525.429688 466.265625 522.277344 466.265625 518.691406 Z M 492.386719 518.761719 C 492.386719 516.113281 491.640625 514.023438 490.160156 512.492188 C 488.660156 510.921875 486.851562 510.121094 484.726562 510.121094 C 482.636719 510.121094 480.839844 510.886719 479.359375 512.421875 C 477.863281 513.953125 477.132812 516.042969 477.132812 518.691406 C 477.132812 521.335938 477.863281 523.460938 479.359375 525.03125 C 480.839844 526.613281 482.636719 527.398438 484.726562 527.398438 C 486.851562 527.398438 488.660156 526.632812 490.160156 525.097656 C 491.640625 523.53125 492.386719 521.40625 492.386719 518.761719 Z M 492.386719 518.761719 " fill-opacity="1" fill-rule="nonzero"/><path fill="#545454" d="M 524.015625 500.855469 C 526.421875 500.855469 528.5625 501.378906 530.425781 502.390625 C 532.273438 503.363281 533.71875 504.671875 534.746094 506.289062 L 534.746094 501.34375 L 545.402344 501.34375 L 545.402344 536.105469 C 545.402344 539.308594 544.742188 542.199219 543.453125 544.8125 C 542.199219 547.40625 540.265625 549.480469 537.671875 551.011719 C 535.058594 552.546875 531.835938 553.3125 527.988281 553.3125 C 522.832031 553.3125 518.652344 552.09375 515.449219 549.691406 C 512.246094 547.269531 510.398438 543.976562 509.945312 539.796875 L 520.464844 539.796875 C 520.777344 541.136719 521.578125 542.183594 522.832031 542.933594 C 524.085938 543.714844 525.636719 544.117188 527.5 544.117188 C 529.675781 544.117188 531.417969 543.453125 532.726562 542.167969 C 534.066406 540.914062 534.746094 538.890625 534.746094 536.105469 L 534.746094 531.160156 C 533.664062 532.796875 532.203125 534.121094 530.355469 535.128906 C 528.546875 536.15625 526.421875 536.664062 524.015625 536.664062 C 521.125 536.664062 518.515625 535.949219 516.144531 534.503906 C 513.8125 533.023438 511.984375 530.914062 510.640625 528.164062 C 509.285156 525.429688 508.621094 522.277344 508.621094 518.691406 C 508.621094 515.121094 509.285156 511.984375 510.640625 509.285156 C 511.984375 506.605469 513.8125 504.53125 516.144531 503.085938 C 518.515625 501.605469 521.125 500.855469 524.015625 500.855469 Z M 534.746094 518.761719 C 534.746094 516.113281 533.996094 514.023438 532.515625 512.492188 C 531.019531 510.921875 529.207031 510.121094 527.082031 510.121094 C 524.992188 510.121094 523.199219 510.886719 521.71875 512.421875 C 520.21875 513.953125 519.488281 516.042969 519.488281 518.691406 C 519.488281 521.335938 520.21875 523.460938 521.71875 525.03125 C 523.199219 526.613281 524.992188 527.398438 527.082031 527.398438 C 529.207031 527.398438 531.019531 526.632812 532.515625 525.097656 C 533.996094 523.53125 534.746094 521.40625 534.746094 518.761719 Z M 534.746094 518.761719 " fill-opacity="1" fill-rule="nonzero"/><path fill="#545454" d="M 587.480469 501.34375 L 587.480469 536.175781 L 576.824219 536.175781 L 576.824219 531.4375 C 575.742188 532.972656 574.28125 534.207031 572.433594 535.128906 C 570.570312 536.070312 568.535156 536.523438 566.304688 536.523438 C 563.605469 536.523438 561.238281 535.949219 559.199219 534.78125 C 557.144531 533.582031 555.578125 531.855469 554.460938 529.628906 C 553.347656 527.398438 552.789062 524.75 552.789062 521.6875 L 552.789062 501.34375 L 563.378906 501.34375 L 563.378906 520.292969 C 563.378906 522.625 563.972656 524.4375 565.191406 525.726562 C 566.390625 526.980469 568.011719 527.605469 570.066406 527.605469 C 572.15625 527.605469 573.792969 526.980469 575.011719 525.726562 C 576.214844 524.4375 576.824219 522.625 576.824219 520.292969 L 576.824219 501.34375 Z M 587.480469 501.34375 " fill-opacity="1" fill-rule="nonzero"/><path fill="#545454" d="M 609.324219 536.664062 C 606.292969 536.664062 603.578125 536.15625 601.175781 535.128906 C 598.804688 534.066406 596.925781 532.621094 595.53125 530.8125 C 594.171875 529 593.441406 526.980469 593.304688 524.75 L 603.820312 524.75 C 603.960938 525.96875 604.519531 526.945312 605.492188 527.675781 C 606.503906 528.425781 607.742188 528.792969 609.1875 528.792969 C 610.527344 528.792969 611.554688 528.546875 612.25 528.023438 C 612.980469 527.519531 613.367188 526.839844 613.367188 526.003906 C 613.367188 524.996094 612.824219 524.246094 611.761719 523.777344 C 610.734375 523.324219 609.0625 522.78125 606.746094 522.171875 C 604.238281 521.617188 602.148438 521.023438 600.476562 520.363281 C 598.839844 519.71875 597.429688 518.691406 596.230469 517.296875 C 595.007812 515.902344 594.417969 514.023438 594.417969 511.65625 C 594.417969 509.667969 594.941406 507.859375 596.019531 506.222656 C 597.132812 504.550781 598.753906 503.261719 600.894531 502.320312 C 603.074219 501.34375 605.632812 500.855469 608.558594 500.855469 C 612.914062 500.855469 616.359375 501.953125 618.867188 504.132812 C 621.410156 506.273438 622.875 509.128906 623.257812 512.699219 L 613.367188 512.699219 C 613.226562 511.496094 612.6875 510.539062 611.761719 509.84375 C 610.875 509.148438 609.707031 508.796875 608.28125 508.796875 C 607.027344 508.796875 606.050781 509.042969 605.355469 509.496094 C 604.691406 509.964844 604.378906 510.609375 604.378906 511.445312 C 604.378906 512.472656 604.902344 513.238281 605.980469 513.746094 C 607.042969 514.214844 608.699219 514.703125 610.925781 515.207031 C 613.523438 515.867188 615.628906 516.511719 617.265625 517.15625 C 618.886719 517.820312 620.296875 518.863281 621.515625 520.292969 C 622.769531 521.738281 623.398438 523.671875 623.398438 526.074219 C 623.398438 528.128906 622.804688 529.957031 621.65625 531.578125 C 620.539062 533.164062 618.902344 534.417969 616.777344 535.339844 C 614.636719 536.210938 612.144531 536.664062 609.324219 536.664062 Z M 609.324219 536.664062 " fill-opacity="1" fill-rule="nonzero"/></svg>